<?xml version="1.0" standalone="no"?>
<!DOCTYPE svg PUBLIC "-//W3C//DTD SVG 20010904//EN"
 "http://www.w3.org/TR/2001/REC-SVG-20010904/DTD/svg10.dtd">
<svg version="1.0" xmlns="http://www.w3.org/2000/svg"
 width="177.000000pt" height="173.000000pt" viewBox="0 0 177.000000 173.000000"
 preserveAspectRatio="xMidYMid meet">

<g transform="translate(0.000000,173.000000) scale(0.100000,-0.100000)"
fill="#000000" stroke="none">
<path d="M913 1672 c-30 -5 -32 -42 -2 -42 12 0 23 -8 26 -19 3 -11 13 -21 24
-24 26 -7 26 -47 -1 -47 -15 0 -20 7 -20 25 0 20 -5 25 -25 25 -20 0 -25 -5
-25 -25 0 -20 5 -25 25 -25 18 0 25 -5 25 -20 0 -15 -7 -20 -25 -20 -20 0 -25
-5 -25 -25 0 -20 5 -25 25 -25 20 0 25 5 25 25 0 18 5 25 20 25 13 0 20 7 20
20 0 13 7 20 20 20 17 0 20 -7 20 -40 0 -33 -3 -40 -20 -40 -15 0 -20 -7 -20
-25 0 -18 -5 -25 -20 -25 -13 0 -20 -7 -20 -20 0 -13 7 -20 20 -20 15 0 20 -7
20 -25 0 -18 5 -25 20 -25 15 0 20 7 20 26 0 21 4 25 23 22 20 -3 22 -9 24
-65 2 -61 1 -63 -23 -63 -17 0 -24 5 -24 20 0 18 -7 20 -65 20 -63 0 -65 1
-65 25 0 18 -5 25 -20 25 -13 0 -20 7 -20 20 0 13 7 20 20 20 13 0 20 7 20 20
0 13 -7 20 -20 20 -15 0 -20 7 -20 25 0 18 -5 25 -20 25 -13 0 -20 7 -20 20 0
13 7 20 20 20 18 0 20 7 20 85 0 84 0 85 -25 85 -18 0 -25 -5 -25 -20 0 -17
-7 -20 -40 -20 -33 0 -40 -3 -40 -20 0 -17 -7 -20 -45 -20 -41 0 -45 -2 -45
-25 0 -18 -5 -25 -20 -25 -19 0 -20 -7 -20 -105 0 -98 -1 -105 -20 -105 -18 0
-20 7 -20 65 0 63 -1 65 -25 65 -23 0 -25 -4 -25 -45 0 -38 -3 -45 -20 -45
-17 0 -20 7 -20 45 0 41 -2 45 -25 45 -25 0 -25 -1 -25 -90 0 -83 -1 -90 -20
-90 -15 0 -20 7 -20 25 0 18 -5 25 -20 25 -15 0 -20 -7 -20 -25 0 -18 5 -25
20 -25 13 0 20 -7 20 -20 0 -13 -7 -20 -20 -20 -15 0 -20 -7 -20 -25 0 -24 2
-25 65 -25 63 0 65 1 65 25 0 18 5 25 20 25 13 0 20 7 20 20 0 13 7 20 20 20
17 0 20 -7 20 -45 0 -41 2 -45 25 -45 18 0 25 -5 25 -20 0 -13 7 -20 20 -20
13 0 20 -7 20 -20 0 -17 7 -20 45 -20 38 0 45 3 45 20 0 13 -7 20 -20 20 -17
0 -20 7 -20 45 l0 45 40 0 40 0 0 -65 c0 -63 1 -65 25 -65 23 0 25 4 25 40 l0
40 40 0 c33 0 40 -3 40 -20 0 -13 -7 -20 -20 -20 -13 0 -20 -7 -20 -20 0 -18
7 -20 65 -20 l65 0 0 65 c0 58 2 65 20 65 15 0 20 -7 20 -25 0 -20 5 -25 26
-25 18 0 25 -5 23 -17 -4 -46 1 -63 21 -63 17 0 20 7 20 45 0 38 -3 45 -20 45
-13 0 -20 7 -20 20 0 13 7 20 20 20 17 0 20 7 20 40 0 33 3 40 20 40 17 0 20
7 20 45 0 42 2 45 26 45 20 0 25 -5 24 -22 -5 -53 0 -68 20 -68 17 0 20 7 20
45 0 38 3 45 20 45 17 0 20 -7 20 -45 0 -42 2 -45 26 -45 33 0 30 -33 -4 -38
-14 -2 -22 -10 -22 -23 0 -16 -7 -19 -40 -19 -33 0 -40 3 -40 20 0 15 -7 20
-25 20 -23 0 -25 -4 -25 -45 0 -42 2 -45 26 -45 33 0 30 -33 -4 -38 -18 -3
-22 -10 -22 -43 0 -32 -3 -39 -20 -39 -15 0 -20 -7 -20 -25 0 -18 5 -25 20
-25 13 0 20 7 20 20 0 17 7 20 45 20 41 0 45 2 45 25 0 18 5 25 20 25 13 0 20
7 20 20 0 14 7 20 24 20 23 0 24 -2 24 -85 0 -83 -1 -85 -24 -85 -17 0 -24 6
-24 20 0 13 -7 20 -20 20 -13 0 -20 -7 -20 -20 0 -17 -7 -20 -45 -20 -41 0
-45 -2 -45 -25 0 -20 5 -25 25 -25 18 0 25 -5 25 -20 0 -13 7 -20 20 -20 13 0
20 -7 20 -20 0 -13 7 -20 20 -20 15 0 20 -7 20 -25 0 -18 -5 -25 -20 -25 -13
0 -20 -7 -20 -20 0 -13 -7 -20 -19 -20 -20 0 -29 -27 -23 -67 3 -19 10 -23 43
-23 35 0 39 3 39 25 0 18 -5 25 -20 25 -13 0 -20 7 -20 20 0 13 7 20 20 20 13
0 20 7 20 20 0 15 7 20 25 20 25 0 25 1 25 90 0 83 1 90 20 90 15 0 20 -7 20
-25 0 -18 5 -25 20 -25 13 0 20 -7 20 -20 0 -13 -7 -20 -20 -20 -13 0 -20 -7
-20 -20 0 -21 8 -23 88 -21 39 1 43 -1 40 -22 -2 -18 -10 -22 -43 -23 -22 -1
-50 -2 -62 -3 -16 -1 -23 -7 -23 -21 0 -13 -7 -20 -19 -20 -20 0 -29 -27 -23
-67 3 -19 10 -23 43 -23 32 0 39 -3 39 -20 0 -13 -7 -20 -20 -20 -13 0 -20 -7
-20 -20 0 -13 7 -20 20 -20 15 0 20 -7 20 -25 0 -18 -5 -25 -20 -25 -13 0 -20
-7 -20 -20 0 -17 -7 -20 -45 -20 -38 0 -45 -3 -45 -20 0 -18 -7 -20 -65 -20
l-66 0 2 63 c2 111 4 107 -41 107 -33 0 -40 -4 -40 -19 0 -10 9 -21 20 -24 18
-5 20 -14 20 -91 l0 -86 65 0 c58 0 65 -2 65 -20 0 -13 -7 -20 -20 -20 -13 0
-20 -7 -20 -20 0 -13 7 -20 20 -20 14 0 20 -7 20 -21 0 -12 -8 -23 -20 -26
-11 -3 -20 -14 -20 -24 0 -12 7 -19 20 -19 18 0 20 -7 20 -65 0 -58 -2 -65
-20 -65 -13 0 -20 -7 -20 -20 0 -13 7 -20 20 -20 13 0 20 7 20 20 0 13 7 20
20 20 21 0 23 8 21 88 l-1 42 45 0 c38 0 45 -3 45 -20 0 -13 -7 -20 -19 -20
-22 0 -28 -22 -22 -88 2 -33 7 -42 22 -42 17 0 19 8 19 65 0 58 2 65 20 65 17
0 20 -7 20 -45 l0 -45 45 0 c38 0 45 -3 45 -20 0 -22 2 -22 103 -22 32 0 61 3
64 6 4 4 7 182 4 274 -1 19 -6 22 -41 22 -34 0 -40 -3 -41 -22 -3 -59 -5 -63
-26 -66 -19 -3 -23 -10 -23 -43 0 -32 -3 -39 -20 -39 -18 0 -20 7 -20 65 0 58
2 65 20 65 13 0 20 7 20 20 0 13 -7 20 -20 20 -17 0 -20 7 -20 45 0 38 -3 45
-20 45 -13 0 -20 7 -20 20 0 15 -7 20 -25 20 -18 0 -25 5 -25 20 0 15 7 20 25
20 20 0 25 5 25 25 0 20 -5 25 -25 25 -18 0 -25 5 -25 20 0 15 7 20 25 20 33
0 35 37 3 42 -15 2 -23 10 -23 23 0 13 8 21 23 23 14 2 22 10 22 23 0 12 7 19
20 19 17 0 20 -7 20 -45 0 -38 3 -45 19 -45 13 0 21 8 23 23 2 14 11 23 26 25
18 3 22 10 22 42 0 32 -4 39 -22 42 -15 2 -23 10 -23 23 0 21 4 22 83 24 35 1
42 4 42 21 0 18 -7 20 -65 20 -58 0 -65 -2 -65 -20 0 -13 -7 -20 -20 -20 -13
0 -20 7 -20 20 0 13 -7 20 -20 20 -13 0 -20 7 -20 20 0 13 7 20 20 20 15 0 20
7 20 25 0 18 -5 25 -20 25 -13 0 -20 -7 -20 -20 0 -15 -7 -20 -25 -20 -18 0
-25 5 -25 20 0 13 -7 20 -20 20 -18 0 -20 7 -20 65 0 58 2 65 20 65 15 0 20
-7 20 -25 0 -20 5 -25 25 -25 20 0 25 5 25 25 0 18 5 25 20 25 17 0 20 -7 20
-45 0 -38 3 -45 20 -45 13 0 20 7 20 20 0 15 7 20 25 20 23 0 25 -4 25 -40 0
-36 -2 -40 -25 -40 -20 0 -25 -5 -25 -25 0 -20 5 -25 25 -25 20 0 25 5 25 25
0 18 5 25 20 25 15 0 20 -7 20 -25 0 -18 5 -25 20 -25 20 0 22 5 22 70 0 72 1
70 -42 70 -33 0 -40 3 -40 20 0 15 -7 20 -25 20 -18 0 -25 5 -25 20 0 15 7 20
25 20 18 0 25 5 25 20 0 17 7 20 40 20 43 0 42 -2 42 70 0 74 4 70 -67 70 -63
0 -65 -1 -65 -25 0 -20 5 -25 25 -25 18 0 25 -5 25 -20 0 -15 -7 -20 -25 -20
-18 0 -25 -5 -25 -20 0 -13 -7 -20 -20 -20 -17 0 -20 7 -20 40 0 33 -3 40 -20
40 -15 0 -20 7 -20 25 0 24 -2 25 -65 25 l-65 0 0 65 0 65 -45 0 -45 0 0 40
c0 33 3 40 20 40 20 0 25 15 20 68 -1 17 4 22 24 22 19 0 26 5 26 20 0 15 -7
20 -25 20 -18 0 -25 -5 -25 -20 0 -13 -7 -20 -20 -20 -13 0 -20 7 -20 20 0 13
-7 20 -20 20 -13 0 -20 -7 -20 -20 0 -15 -7 -20 -25 -20 -18 0 -25 5 -25 20 0
17 -7 20 -40 20 -33 0 -40 -3 -40 -20 0 -17 -7 -20 -45 -20 -37 0 -45 3 -45
19 0 20 -27 29 -67 23z m237 -62 c0 -13 -7 -20 -20 -20 -13 0 -20 7 -20 20 0
13 7 20 20 20 13 0 20 -7 20 -20z m-390 -45 c0 -18 -5 -25 -20 -25 -13 0 -20
-7 -20 -20 0 -13 -7 -20 -20 -20 -13 0 -20 7 -20 20 0 13 7 20 20 20 15 0 20
7 20 25 0 18 5 25 20 25 15 0 20 -7 20 -25z m308 2 c4 -20 -25 -34 -40 -19
-15 15 -1 44 19 40 10 -2 19 -11 21 -21z m-398 -87 c0 -13 -7 -20 -20 -20 -13
0 -20 7 -20 20 0 13 7 20 20 20 13 0 20 -7 20 -20z m528 -3 c3 -12 -3 -17 -22
-17 -25 0 -35 18 -19 34 12 12 38 2 41 -17z m-88 -67 c0 -33 -3 -40 -20 -40
-13 0 -20 7 -20 19 0 13 -8 21 -22 23 -13 2 -24 11 -26 21 -3 14 4 17 42 17
l46 0 0 -40z m-440 -20 c0 -15 7 -20 25 -20 18 0 25 5 25 20 0 13 7 20 20 20
13 0 20 -7 20 -20 0 -13 -7 -20 -20 -20 -15 0 -20 -7 -20 -25 0 -18 5 -25 20
-25 13 0 20 -7 20 -20 0 -18 7 -20 65 -20 58 0 65 -2 65 -20 0 -18 -7 -20 -65
-20 -58 0 -65 2 -65 20 0 18 -7 20 -85 20 -78 0 -85 2 -85 20 0 13 7 20 20 20
17 0 20 7 20 45 0 38 3 45 20 45 13 0 20 -7 20 -20z m180 0 c0 -13 -7 -20 -20
-20 -13 0 -20 7 -20 20 0 13 7 20 20 20 13 0 20 -7 20 -20z m170 0 c0 -13 -7
-20 -20 -20 -13 0 -20 7 -20 20 0 13 7 20 20 20 13 0 20 -7 20 -20z m350 -175
c0 -58 -2 -65 -20 -65 -18 0 -20 7 -20 65 0 58 2 65 20 65 18 0 20 -7 20 -65z
m88 25 c0 -35 -3 -40 -23 -40 -20 0 -23 5 -23 40 -1 36 2 40 23 40 21 0 24 -4
23 -40z m-828 -20 c0 -13 -7 -20 -20 -20 -13 0 -20 7 -20 20 0 13 7 20 20 20
13 0 20 -7 20 -20z m870 -50 c0 -13 -7 -20 -20 -20 -13 0 -20 7 -20 20 0 13 7
20 20 20 13 0 20 -7 20 -20z m-220 -235 c0 -38 -3 -45 -20 -45 -17 0 -20 7
-20 45 0 38 3 45 20 45 17 0 20 -7 20 -45z m130 -455 c0 -13 -7 -20 -20 -20
-13 0 -20 7 -20 20 0 13 7 20 20 20 13 0 20 -7 20 -20z m48 -132 l-3 -63 -62
-3 -63 -3 0 66 0 65 65 0 66 0 -3 -62z m-178 2 c0 -13 -7 -20 -20 -20 -13 0
-20 7 -20 20 0 13 7 20 20 20 13 0 20 -7 20 -20z m350 -90 c0 -13 -7 -20 -20
-20 -13 0 -20 7 -20 20 0 13 7 20 20 20 13 0 20 -7 20 -20z m-130 -85 c0 -23
4 -25 45 -25 41 0 45 2 45 25 0 18 5 25 20 25 17 0 20 -7 20 -45 l0 -45 -65 0
c-58 0 -65 2 -65 20 0 13 -7 20 -20 20 -15 0 -20 7 -20 25 0 18 5 25 20 25 15
0 20 -7 20 -25z"/>
<path d="M1370 350 c0 -13 7 -20 20 -20 13 0 20 7 20 20 0 13 -7 20 -20 20
-13 0 -20 -7 -20 -20z"/>
<path d="M70 1520 l0 -150 150 0 150 0 0 150 0 150 -150 0 -150 0 0 -150z
m260 0 l0 -110 -110 0 -110 0 0 110 0 110 110 0 110 0 0 -110z"/>
<path d="M150 1525 l0 -65 65 0 65 0 0 65 0 65 -65 0 -65 0 0 -65z"/>
<path d="M410 1605 c0 -63 1 -65 25 -65 18 0 25 -5 25 -20 0 -13 7 -20 20 -20
13 0 20 7 20 20 0 15 7 20 25 20 20 0 25 5 25 25 0 18 5 25 20 25 13 0 20 7
20 20 0 17 7 20 45 20 38 0 45 3 45 20 0 17 -7 20 -45 20 -38 0 -45 -3 -45
-20 0 -13 -7 -20 -20 -20 -13 0 -20 7 -20 20 0 15 -7 20 -25 20 -18 0 -25 -5
-25 -20 0 -13 -7 -20 -20 -20 -13 0 -20 7 -20 20 0 15 -7 20 -25 20 -24 0 -25
-2 -25 -65z m90 -40 c0 -18 -5 -25 -20 -25 -15 0 -20 7 -20 25 0 18 5 25 20
25 15 0 20 -7 20 -25z"/>
<path d="M1370 1520 l0 -150 150 0 150 0 0 150 0 150 -150 0 -150 0 0 -150z
m260 0 l0 -110 -110 0 -110 0 0 110 0 110 110 0 110 0 0 -110z"/>
<path d="M1460 1525 l0 -65 65 0 65 0 0 65 0 65 -65 0 -65 0 0 -65z"/>
<path d="M150 1305 c0 -18 -5 -25 -20 -25 -13 0 -20 -7 -20 -20 0 -17 7 -20
45 -20 l45 0 -3 -42 -2 -43 -62 -3 c-55 -3 -63 -6 -63 -22 0 -13 7 -20 20 -20
13 0 20 -7 20 -20 0 -13 -7 -20 -20 -20 -17 0 -20 -7 -20 -45 0 -38 3 -45 20
-45 13 0 20 -7 20 -20 0 -13 -7 -20 -19 -20 -16 0 -20 -9 -23 -47 -6 -91 -5
-93 68 -93 57 0 64 -2 64 -20 0 -13 7 -20 20 -20 13 0 20 7 20 20 0 13 -7 20
-20 20 -15 0 -20 7 -20 24 0 25 1 25 105 25 l105 1 0 -26 c0 -18 -5 -25 -17
-23 -46 4 -63 -1 -63 -21 0 -15 -7 -20 -25 -20 -18 0 -25 -5 -25 -20 0 -13 -7
-20 -20 -20 -15 0 -20 -7 -20 -25 0 -18 5 -25 20 -25 13 0 20 -7 20 -20 0 -18
-7 -20 -65 -20 -58 0 -65 -2 -65 -19 0 -13 8 -21 23 -23 14 -2 22 -10 22 -23
0 -13 -8 -21 -22 -23 -15 -2 -23 -10 -23 -23 0 -16 7 -19 45 -19 l45 0 0 -45
c0 -41 2 -45 25 -45 20 0 25 5 25 26 0 33 33 30 38 -4 3 -18 10 -22 43 -22 32
0 39 -3 39 -20 0 -15 7 -20 25 -20 18 0 25 -5 25 -20 0 -13 7 -20 20 -20 15 0
20 -7 20 -26 0 -20 -5 -25 -22 -24 -67 6 -68 5 -68 -65 0 -63 1 -65 25 -65 23
0 25 4 25 45 0 38 3 45 20 45 18 0 20 -7 20 -65 0 -58 -2 -65 -20 -65 -13 0
-20 -7 -20 -20 0 -13 7 -20 20 -20 13 0 20 7 20 20 0 13 7 20 20 20 13 0 20
-7 20 -19 0 -21 27 -30 67 -23 20 4 22 11 25 66 l3 61 40 0 c34 0 40 -3 43
-22 3 -19 -1 -23 -22 -23 -19 0 -26 -5 -26 -20 0 -15 7 -20 25 -20 18 0 25 -5
25 -20 0 -23 -6 -22 150 -22 156 0 150 -1 150 22 0 15 7 20 25 20 18 0 25 5
25 20 0 13 7 20 20 20 15 0 20 7 20 25 0 18 5 25 20 25 17 0 20 7 21 40 3 122
2 130 -21 130 -13 0 -20 -7 -20 -20 0 -13 -7 -20 -20 -20 -17 0 -20 7 -20 39
0 33 -4 40 -22 43 -15 2 -24 11 -26 26 -4 29 -42 31 -42 1 0 -12 -8 -23 -19
-26 -21 -5 -32 -33 -24 -62 3 -11 13 -21 24 -24 25 -7 25 -37 0 -44 -11 -3
-21 -13 -24 -24 -7 -26 -47 -26 -47 1 0 15 7 20 25 20 20 0 25 5 25 25 0 20
-5 25 -25 25 -18 0 -25 5 -25 20 0 17 -7 20 -45 20 -38 0 -45 -3 -45 -20 0
-13 -7 -20 -20 -20 -19 0 -20 7 -20 105 0 114 1 112 -62 106 -13 -2 -18 5 -18
23 0 24 4 26 40 26 33 0 40 3 40 20 0 17 -7 20 -45 20 -38 0 -45 -3 -45 -20 0
-17 -7 -20 -40 -20 -33 0 -40 3 -40 20 0 15 -7 20 -25 20 -23 0 -25 -4 -25
-45 0 -38 -3 -45 -20 -45 -17 0 -20 -7 -20 -40 0 -33 -3 -40 -19 -40 -13 0
-21 -8 -23 -22 -2 -13 -11 -24 -20 -26 -15 -3 -18 4 -18 42 0 42 -2 46 -25 46
-18 0 -25 5 -25 20 0 13 -7 20 -20 20 -15 0 -20 7 -20 25 0 18 5 25 20 25 13
0 20 7 20 20 0 15 7 20 25 20 18 0 25 5 25 20 0 13 7 20 20 20 17 0 20 -7 20
-40 0 -33 3 -40 20 -40 17 0 20 7 20 40 l0 40 65 0 c63 0 65 1 65 25 0 25 -1
25 -85 25 -78 0 -85 2 -85 20 0 17 7 20 45 20 l45 0 0 45 0 45 -65 0 c-58 0
-65 2 -65 20 0 18 7 20 65 20 l65 0 0 65 0 65 40 0 c36 0 40 3 40 25 0 18 -5
25 -20 25 -13 0 -20 7 -20 20 0 13 -7 20 -20 20 -13 0 -20 7 -20 20 0 15 -7
20 -25 20 -18 0 -25 -5 -25 -20 0 -13 -7 -20 -20 -20 -13 0 -20 7 -20 20 0 15
-7 20 -25 20 -18 0 -25 -5 -25 -20 0 -13 -7 -20 -20 -20 -13 0 -20 7 -20 20 0
17 -7 20 -40 20 -36 0 -40 3 -40 25 0 20 -5 25 -25 25 -18 0 -25 5 -25 20 0
15 7 20 25 20 23 0 25 4 25 45 l0 45 -70 0 c-68 0 -70 -1 -70 -25z m90 -45 c0
-13 -7 -20 -20 -20 -13 0 -20 7 -20 20 0 13 7 20 20 20 13 0 20 -7 20 -20z
m40 -155 c0 -41 2 -45 25 -45 18 0 25 -5 25 -20 0 -17 7 -20 40 -20 33 0 40
-3 40 -20 0 -17 -7 -20 -40 -20 -36 0 -40 -2 -40 -25 0 -22 4 -25 40 -25 33 0
40 -3 40 -20 0 -19 -7 -20 -105 -20 -98 0 -105 -1 -105 -20 0 -15 -7 -20 -25
-20 -18 0 -25 5 -25 20 0 13 -7 20 -20 20 -13 0 -20 7 -20 20 0 13 7 20 20 20
13 0 20 -7 20 -20 0 -15 7 -20 25 -20 18 0 25 5 25 20 0 17 7 20 45 20 41 0
45 2 45 25 0 20 -5 25 -25 25 -18 0 -25 5 -25 20 0 13 -7 20 -20 20 -17 0 -20
-7 -20 -40 0 -35 -3 -40 -24 -40 -21 0 -24 5 -24 40 -1 36 2 40 24 40 17 0 24
5 24 20 0 13 7 20 20 20 17 0 20 7 20 45 0 38 3 45 20 45 17 0 20 -7 20 -45z
m-82 -18 c3 -12 -3 -17 -22 -17 -25 0 -35 18 -19 34 12 12 38 2 41 -17z m172
3 c0 -13 -7 -20 -20 -20 -13 0 -20 7 -20 20 0 13 7 20 20 20 13 0 20 -7 20
-20z m90 -50 c0 -13 7 -20 20 -20 13 0 20 7 20 20 0 13 7 20 20 20 13 0 20 -7
20 -20 0 -13 -7 -20 -20 -20 -13 0 -20 -7 -20 -20 0 -13 -7 -20 -20 -20 -13 0
-20 7 -20 20 0 13 -7 20 -20 20 -13 0 -20 7 -20 20 0 13 7 20 20 20 13 0 20
-7 20 -20z m-50 -300 c0 -17 -7 -20 -40 -20 -33 0 -40 3 -40 20 0 17 7 20 40
20 33 0 40 -3 40 -20z m-85 -45 c0 -11 -8 -21 -17 -23 -14 -3 -18 3 -18 23 0
20 4 26 18 23 9 -2 17 -12 17 -23z m45 -45 c0 -13 -7 -20 -20 -20 -13 0 -20
-7 -20 -20 0 -13 -7 -20 -20 -20 -13 0 -20 7 -20 20 0 13 7 20 20 20 13 0 20
7 20 20 0 13 7 20 20 20 13 0 20 -7 20 -20z m-90 -85 c0 -20 5 -25 25 -25 18
0 25 -5 25 -20 0 -13 7 -20 20 -20 13 0 20 -7 20 -20 0 -13 -7 -20 -20 -20
-13 0 -20 7 -20 20 0 17 -7 20 -45 20 l-45 0 0 38 c0 41 6 52 27 52 7 0 13
-11 13 -25z m390 -65 c0 -33 -3 -40 -20 -40 -15 0 -20 -7 -20 -25 0 -23 4 -25
45 -25 l45 0 0 -40 c0 -33 -3 -40 -20 -40 -13 0 -20 7 -20 20 0 17 -7 20 -45
20 -38 0 -45 -3 -45 -20 0 -13 -7 -20 -20 -20 -13 0 -20 7 -20 20 0 15 -7 20
-25 20 -18 0 -25 5 -25 20 0 17 7 20 45 20 l45 0 0 65 0 65 40 0 40 0 0 -40z
m220 -195 c0 -18 -5 -25 -20 -25 -13 0 -20 -7 -20 -20 0 -15 -7 -20 -25 -20
-18 0 -25 -5 -25 -20 0 -17 -7 -20 -40 -20 -33 0 -40 3 -40 20 0 17 -7 20 -45
20 -38 0 -45 -3 -45 -20 0 -13 -7 -20 -20 -20 -13 0 -20 7 -20 20 0 13 7 20
20 20 13 0 20 7 20 20 0 19 7 20 110 20 l110 0 0 25 c0 18 5 25 20 25 15 0 20
-7 20 -25z m-350 -45 c0 -13 -7 -20 -20 -20 -13 0 -20 7 -20 20 0 13 7 20 20
20 13 0 20 -7 20 -20z m570 -20 c0 -33 -3 -40 -19 -40 -13 0 -21 -8 -23 -22
-3 -22 -7 -24 -65 -27 -16 -1 -23 -7 -23 -21 0 -13 -7 -20 -20 -20 -13 0 -20
7 -20 20 0 13 7 20 20 20 17 0 20 7 20 45 l0 45 45 0 c38 0 45 3 45 20 0 13 7
20 20 20 17 0 20 -7 20 -40z m-172 -63 c4 -20 -25 -34 -40 -19 -15 15 -1 44
19 40 10 -2 19 -11 21 -21z m-348 -47 c0 -13 -7 -20 -20 -20 -13 0 -20 7 -20
20 0 13 7 20 20 20 13 0 20 -7 20 -20z m210 0 c0 -17 -7 -20 -40 -20 -33 0
-40 3 -40 20 0 17 7 20 40 20 33 0 40 -3 40 -20z m90 0 c0 -13 -7 -20 -20 -20
-13 0 -20 7 -20 20 0 13 7 20 20 20 13 0 20 -7 20 -20z"/>
<path d="M730 955 l-85 -85 87 -87 c87 -86 87 -87 108 -68 l21 19 -68 68 -68
68 48 47 47 48 47 -47 c46 -47 47 -47 28 -68 -18 -20 -18 -21 1 -40 20 -20 20
-20 59 20 l39 40 -84 85 c-47 47 -87 85 -90 85 -3 0 -44 -38 -90 -85z"/>
<path d="M895 1024 c-19 -19 -14 -26 58 -93 26 -25 47 -51 47 -58 0 -8 -19
-32 -42 -53 l-43 -40 -44 45 c-44 44 -45 44 -26 65 18 20 18 21 -2 41 l-20 20
-36 -35 c-21 -20 -37 -39 -37 -44 0 -4 38 -46 85 -92 l85 -85 87 88 88 87 -85
85 c-46 47 -88 85 -92 85 -3 0 -14 -7 -23 -16z"/>
<path d="M590 915 c0 -18 5 -25 20 -25 15 0 20 7 20 25 0 18 -5 25 -20 25 -15
0 -20 -7 -20 -25z"/>
<path d="M1110 845 l0 -45 45 0 c41 0 45 2 45 25 0 20 -5 25 -25 25 -18 0 -25
5 -25 20 0 13 -7 20 -20 20 -17 0 -20 -7 -20 -45z"/>
<path d="M590 780 c0 -13 7 -20 20 -20 13 0 20 7 20 20 0 13 -7 20 -20 20 -13
0 -20 -7 -20 -20z"/>
<path d="M70 740 c0 -13 7 -20 20 -20 15 0 20 -7 20 -25 0 -18 -5 -25 -20 -25
-17 0 -20 -7 -21 -42 -1 -45 -1 -170 0 -200 1 -11 9 -18 21 -18 19 0 20 7 20
130 l0 130 45 0 c41 0 45 2 45 25 0 23 -4 25 -45 25 -38 0 -45 3 -45 20 0 13
-7 20 -20 20 -13 0 -20 -7 -20 -20z"/>
<path d="M1110 715 c0 -37 3 -45 19 -45 20 0 29 27 23 68 -2 14 -10 22 -23 22
-16 0 -19 -7 -19 -45z"/>
<path d="M1630 630 c0 -33 4 -40 19 -40 11 0 20 9 23 23 6 36 -2 57 -23 57
-16 0 -19 -7 -19 -40z"/>
<path d="M940 611 c0 -10 9 -21 20 -24 12 -3 20 -14 20 -26 0 -14 6 -21 20
-21 13 0 20 -7 20 -20 0 -15 7 -20 25 -20 23 0 25 4 25 45 0 41 -2 45 -25 45
-18 0 -25 5 -25 20 0 17 -7 20 -40 20 -33 0 -40 -4 -40 -19z"/>
<path d="M1200 610 c0 -13 7 -20 20 -20 13 0 20 7 20 20 0 13 -7 20 -20 20
-13 0 -20 -7 -20 -20z"/>
<path d="M1280 610 c0 -15 7 -20 25 -20 18 0 25 5 25 20 0 15 -7 20 -25 20
-18 0 -25 -5 -25 -20z"/>
<path d="M873 542 c-15 -2 -23 -10 -23 -23 0 -16 7 -19 45 -19 37 0 45 3 45
19 0 20 -27 29 -67 23z"/>
<path d="M1563 542 c-33 -5 -31 -42 2 -42 18 0 25 -5 25 -20 0 -13 7 -20 20
-20 15 0 20 -7 20 -25 0 -18 5 -25 20 -25 20 0 22 5 22 70 0 57 -1 58 -44 61
-24 2 -53 3 -65 1z"/>
<path d="M1200 520 c0 -13 7 -20 20 -20 13 0 20 7 20 20 0 13 -7 20 -20 20
-13 0 -20 -7 -20 -20z"/>
<path d="M800 435 c0 -20 5 -25 25 -25 20 0 25 5 25 25 0 20 -5 25 -25 25 -20
0 -25 -5 -25 -25z"/>
<path d="M890 435 c0 -20 5 -25 25 -25 20 0 25 5 25 25 0 20 -5 25 -25 25 -20
0 -25 -5 -25 -25z"/>
<path d="M70 220 l0 -150 150 0 150 0 0 150 0 150 -150 0 -150 0 0 -150z m260
0 l0 -110 -110 0 -110 0 0 110 0 110 110 0 110 0 0 -110z"/>
<path d="M150 215 l0 -65 65 0 65 0 0 65 0 65 -65 0 -65 0 0 -65z"/>
<path d="M1110 90 c0 -13 7 -20 20 -20 13 0 20 7 20 20 0 13 -7 20 -20 20 -13
0 -20 -7 -20 -20z"/>
</g>
</svg>
